<svg width="2609" height="480" viewBox="0 0 2609 480" fill="none" xmlns="http://www.w3.org/2000/svg">
<style>.ink{fill:#18181b}@media(prefers-color-scheme:dark){.ink{fill:#ededf0}}</style>
<path d="M485.6 259.52C485.6 266.133 485.173 272.107 484.32 277.44H349.6C350.667 291.52 355.893 302.827 365.28 311.36C374.667 319.893 386.187 324.16 399.84 324.16C419.467 324.16 433.333 315.947 441.44 299.52H480.8C475.467 315.733 465.76 329.067 451.68 339.52C437.813 349.76 420.533 354.88 399.84 354.88C382.987 354.88 367.84 351.147 354.4 343.68C341.173 336 330.72 325.333 323.04 311.68C315.573 297.813 311.84 281.813 311.84 263.68C311.84 245.547 315.467 229.653 322.72 216C330.187 202.133 340.533 191.467 353.76 184C367.2 176.533 382.56 172.8 399.84 172.8C416.48 172.8 431.307 176.427 444.32 183.68C457.333 190.933 467.467 201.173 474.72 214.4C481.973 227.413 485.6 242.453 485.6 259.52ZM447.52 248C447.307 234.56 442.507 223.787 433.12 215.68C423.733 207.573 412.107 203.52 398.24 203.52C385.653 203.52 374.88 207.573 365.92 215.68C356.96 223.573 351.627 234.347 349.92 248H447.52ZM509.34 263.04C509.34 245.333 512.967 229.653 520.22 216C527.687 202.347 537.713 191.787 550.3 184.32C563.1 176.64 577.18 172.8 592.54 172.8C606.407 172.8 618.46 175.573 628.7 181.12C639.153 186.453 647.473 193.173 653.66 201.28V175.68H690.46V352H653.66V325.76C647.473 334.08 639.047 341.013 628.38 346.56C617.713 352.107 605.553 354.88 591.9 354.88C576.753 354.88 562.887 351.04 550.3 343.36C537.713 335.467 527.687 324.587 520.22 310.72C512.967 296.64 509.34 280.747 509.34 263.04ZM653.66 263.68C653.66 251.52 651.1 240.96 645.98 232C641.073 223.04 634.567 216.213 626.46 211.52C618.353 206.827 609.607 204.48 600.22 204.48C590.833 204.48 582.087 206.827 573.98 211.52C565.873 216 559.26 222.72 554.14 231.68C549.233 240.427 546.78 250.88 546.78 263.04C546.78 275.2 549.233 285.867 554.14 295.04C559.26 304.213 565.873 311.253 573.98 316.16C582.3 320.853 591.047 323.2 600.22 323.2C609.607 323.2 618.353 320.853 626.46 316.16C634.567 311.467 641.073 304.64 645.98 295.68C651.1 286.507 653.66 275.84 653.66 263.68ZM806.535 319.36L856.455 175.68H895.175L827.975 352H784.455L717.575 175.68H756.615L806.535 319.36ZM1084.35 259.52C1084.35 266.133 1083.92 272.107 1083.07 277.44H948.35C949.417 291.52 954.643 302.827 964.03 311.36C973.417 319.893 984.937 324.16 998.59 324.16C1018.22 324.16 1032.08 315.947 1040.19 299.52H1079.55C1074.22 315.733 1064.51 329.067 1050.43 339.52C1036.56 349.76 1019.28 354.88 998.59 354.88C981.737 354.88 966.59 351.147 953.15 343.68C939.923 336 929.47 325.333 921.79 311.68C914.323 297.813 910.59 281.813 910.59 263.68C910.59 245.547 914.217 229.653 921.47 216C928.937 202.133 939.283 191.467 952.51 184C965.95 176.533 981.31 172.8 998.59 172.8C1015.23 172.8 1030.06 176.427 1043.07 183.68C1056.08 190.933 1066.22 201.173 1073.47 214.4C1080.72 227.413 1084.35 242.453 1084.35 259.52ZM1046.27 248C1046.06 234.56 1041.26 223.787 1031.87 215.68C1022.48 207.573 1010.86 203.52 996.99 203.52C984.403 203.52 973.63 207.573 964.67 215.68C955.71 223.573 950.377 234.347 948.67 248H1046.27ZM1156.73 201.28C1162.06 192.32 1169.1 185.387 1177.85 180.48C1186.81 175.36 1197.37 172.8 1209.53 172.8V210.56H1200.25C1185.96 210.56 1175.08 214.187 1167.61 221.44C1160.36 228.693 1156.73 241.28 1156.73 259.2V352H1120.25V175.68H1156.73V201.28Z" class="ink"/>
<path fill-rule="evenodd" clip-rule="evenodd" d="M0.949951 0H161.493C175.267 1.37744 188.852 2.70738 202.246 6.41221C239.912 16.9567 270.168 44.6005 275.108 84.7362C277.483 103.83 275.06 123.447 266.368 140.736C261.381 150.663 253.544 158.975 244.804 165.72L235.067 173.035C239.532 176.692 245.469 178.212 250.551 180.967C266.796 189.896 280.095 202.531 288.977 218.965C298.002 235.779 301.184 256.488 299.617 275.345C295.77 322.32 262.996 351.532 218.87 362.409C208.421 364.974 197.829 366.019 187.142 367.158H0.949951V0Z" class="ink"/>
<path fill-rule="evenodd" clip-rule="evenodd" d="M151.851 368.109C165.53 359.132 182.249 358.182 197.021 351.342C235.495 333.578 273.255 289.927 245.042 246.942C234.782 231.362 217.445 222.623 199.776 218.49C191.274 216.496 177.12 216.258 176.407 205.049C175.695 193.459 184.529 184.672 192.034 177.072C194.979 174.08 197.591 169.995 201.724 168.475C207.566 166.338 217.683 169.473 224.475 162.158C228.417 157.883 227.372 151.803 229.7 146.911C234.212 137.554 237.062 132.994 237.632 122.212L238.249 112.38C235.969 93.476 208.088 70.772 192.224 62.5549C182.344 57.4726 171.895 53.6252 161.018 51.3928C138.884 46.833 98.3206 46.1206 81.9339 64.4548C70.0594 77.7067 75.9016 92.8585 71.9593 97.8933L58.0899 109.578C47.1654 119.79 37.7133 131.474 29.6862 144.061C20.7566 158.073 13.7269 173.225 8.07464 188.852C5.36726 196.356 3.84733 204.051 0 211.081V368.109H151.851Z" fill="#FCF7EF"/>
<path fill-rule="evenodd" clip-rule="evenodd" d="M2.1374 359.511C9.40458 350.534 13.3469 338.565 19.9016 328.875C38.3308 301.421 62.4597 277.483 90.341 259.718C105.208 250.219 121.595 242.667 138.409 237.394C146.056 234.972 154.511 234.497 161.493 230.697C158.88 228.037 155.746 225.377 154.273 221.815C147.433 205.143 165.008 187.854 177.832 180.444C185.574 175.932 196.451 174.27 202.436 167.24C205.381 163.82 205.001 159.165 205.001 154.986C204.241 151.043 212.791 139.169 222.433 135.891L227.657 127.674C232.217 122.497 237.822 125.347 238.344 115.705L237.442 109.34C235.685 105.635 230.507 104.543 227.895 101.313C208.658 77.944 180.207 63.1722 149.713 64.4546C142.969 64.7396 136.794 66.687 130.192 67.827C124.587 68.7769 119.41 66.0221 113.9 65.7371C102.025 65.0721 88.2986 72.1018 87.5861 85.1637C87.3011 89.961 89.4385 94.7108 90.2935 99.413C76.8516 106.11 65.4521 115.895 55.4775 127.057C-0.664981 189.754 1.66242 280.712 2.1374 359.511Z" fill="#87502A"/>
<path fill-rule="evenodd" clip-rule="evenodd" d="M4.5123 367.159H156.695L161.255 363.026L172.322 359.369L180.729 354.239L199.586 343.79C225.52 326.88 252.689 298.334 240.529 265.086C215.213 219.678 141.829 241.242 105.73 259.718C70.1068 278.528 41.0856 306.694 18.9041 340.132C13.2519 348.634 7.21968 357.279 4.5123 367.159Z" fill="#301D0F"/>
<path fill-rule="evenodd" clip-rule="evenodd" d="M49.9203 341.272L51.5352 341.557L58.8023 337.282L80.2239 323.176C83.9287 320.753 87.2061 317.761 91.3859 316.193C97.5131 320.088 113.71 329.398 117.462 334.433C110.053 340.037 94.1408 346.402 89.0585 352.624C98.7006 351.674 117.557 337.472 123.447 337.52C126.724 337.567 143.539 350.439 150.853 351.627C146.246 344.455 135.464 339.752 128.909 334.148C133.326 329.35 153.941 317.333 160.59 313.914C169.662 317.333 182.012 328.923 191.131 330.11C185.194 321.988 173.225 317.903 166.48 310.161L181.964 297.812C186.334 294.344 190.656 290.402 195.501 287.695C203.813 291.21 213.313 300.424 222.005 301.612C216.495 293.727 205.666 290.687 200.061 283.04C204.051 278.48 209.846 274.585 212.458 269.123C206.093 271.308 201.866 277.815 195.786 280.855C190.371 277.388 171.135 266.558 168.285 262.948C170.09 261.191 171.8 259.766 173.13 257.676C170.042 258.388 167.477 259.956 164.533 261.191C160.448 259.481 156.41 256.014 152.088 256.346C154.606 259.101 157.835 261.001 159.83 264.136L128.054 284.75C121.927 282.327 112.332 274.253 106.585 274.348C110.955 279.62 117.89 282.47 121.927 287.98C117.225 293.679 99.0805 304.319 91.9558 309.164C86.8261 307.549 75.2366 298.952 71.9118 298.809L70.5818 299.237C75.4266 304.461 82.3138 307.739 86.7311 313.344C78.134 319.138 69.7744 325.266 61.5097 331.583C57.5199 334.623 53.1976 337.472 49.9203 341.272ZM190.704 284.75C186.192 290.64 168.047 302.324 161.065 306.504C156.458 304.509 138.551 293.394 135.654 289.927L134.514 287.505C138.266 282.185 157.028 269.788 163.393 266.226L178.307 276.105C182.629 279.05 186.809 281.187 190.704 284.75ZM154.036 310.399C150.568 315.338 128.767 328.59 122.592 330.538C117.13 326.358 111.43 322.463 105.635 318.663C102.5 316.621 98.938 315.243 96.4207 312.536C99.983 309.116 123.874 293.157 128.387 291.352C135.369 297.384 149.096 303.891 154.036 310.399Z" fill="#6A3F20"/>
<path fill-rule="evenodd" clip-rule="evenodd" d="M107.583 80.509C113.33 79.9865 117.842 82.4089 121.785 86.3987C122.64 87.3962 123.21 88.2036 123.684 89.3911C121.072 91.7185 117.557 93.8084 114.66 96.2308L110.67 99.6981C108.675 100.411 104.685 95.4233 103.545 93.9984C100.411 88.1561 100.553 82.6464 107.583 80.509Z" fill="#1F130A"/>
<path fill-rule="evenodd" clip-rule="evenodd" d="M165.577 90.5309C171.182 89.9134 175.077 91.2909 176.882 96.9431C177.452 102.833 175.789 106.015 170.137 107.915C164.58 108.675 161.018 106.68 159.165 101.408C158.405 96.3731 160.78 92.2408 165.577 90.5309Z" fill="#1F130A"/>
<path fill-rule="evenodd" clip-rule="evenodd" d="M212.695 110.48L212.885 113.188C214.548 117.557 219.963 120.977 223.525 123.732C229.747 127.437 236.064 125.774 238.154 118.507C238.962 110.528 239.104 106.063 229.89 105.445C224.902 105.493 217.54 105.208 213.598 109.008L212.695 110.48Z" fill="#1F130A"/>
<path fill-rule="evenodd" clip-rule="evenodd" d="M201.248 149.001C200.298 148.051 200.441 146.626 201.628 145.914L219.393 134.609C219.915 134.229 220.865 133.707 221.435 133.422C222.48 132.899 223.525 133.327 223.857 134.372C224.807 137.269 225.425 142.114 225.187 145.201L224.902 149.143C224.76 150.948 223.335 153.181 221.72 154.036L221.198 154.321C219.725 155.128 217.113 155.556 215.45 155.271L214.263 155.081C211.888 154.701 208.231 153.466 206.093 152.326L204.763 151.613C203.671 151.043 202.103 149.856 201.248 149.001Z" fill="#1F130A"/>
<path fill-rule="evenodd" clip-rule="evenodd" d="M207.186 142.779C207.138 142.114 207.566 141.306 208.136 141.021L212.125 138.694C212.695 138.361 213.218 138.646 213.265 139.264L214.12 149.048C214.215 149.856 213.598 150.521 212.838 150.616L209.798 150.901C208.753 150.948 207.851 150.188 207.756 149.143L207.186 142.779Z" fill="#FCF7EF"/>
<path fill-rule="evenodd" clip-rule="evenodd" d="M214.595 138.504C214.548 137.839 214.975 137.079 215.545 136.747L219.725 134.324C220.295 133.992 220.818 134.277 220.865 134.894L222.195 150.236C222.29 151.281 221.53 152.231 220.485 152.278L217.255 152.563C216.495 152.658 215.783 152.088 215.735 151.281L214.595 138.504Z" fill="#FCF7EF"/>
<path fill-rule="evenodd" clip-rule="evenodd" d="M169.9 93.9508C171.847 93.6183 172.417 93.6659 173.51 95.2808C173.747 97.0857 173.557 97.8457 172.037 98.8431C170.327 99.0806 169.615 98.8431 168.617 97.4182C168.332 95.7558 168.57 94.9958 169.9 93.9508Z" fill="white"/>
<path d="M1360.48 201.92C1366.67 193.387 1375.09 186.453 1385.76 181.12C1396.64 175.573 1408.69 172.8 1421.92 172.8C1437.49 172.8 1451.57 176.533 1464.16 184C1476.75 191.467 1486.67 202.133 1493.92 216C1501.17 229.653 1504.8 245.333 1504.8 263.04C1504.8 280.747 1501.17 296.64 1493.92 310.72C1486.67 324.587 1476.64 335.467 1463.84 343.36C1451.25 351.04 1437.28 354.88 1421.92 354.88C1408.27 354.88 1396.11 352.213 1385.44 346.88C1374.99 341.547 1366.67 334.72 1360.48 326.4V352H1324V115.2H1360.48V201.92ZM1467.68 263.04C1467.68 250.88 1465.12 240.427 1460 231.68C1455.09 222.72 1448.48 216 1440.16 211.52C1432.05 206.827 1423.31 204.48 1413.92 204.48C1404.75 204.48 1396 206.827 1387.68 211.52C1379.57 216.213 1372.96 223.04 1367.84 232C1362.93 240.96 1360.48 251.52 1360.48 263.68C1360.48 275.84 1362.93 286.507 1367.84 295.68C1372.96 304.64 1379.57 311.467 1387.68 316.16C1396 320.853 1404.75 323.2 1413.92 323.2C1423.31 323.2 1432.05 320.853 1440.16 316.16C1448.48 311.253 1455.09 304.213 1460 295.04C1465.12 285.867 1467.68 275.2 1467.68 263.04ZM1528.72 263.04C1528.72 245.333 1532.34 229.653 1539.6 216C1547.06 202.347 1557.09 191.787 1569.68 184.32C1582.48 176.64 1596.56 172.8 1611.92 172.8C1625.78 172.8 1637.84 175.573 1648.08 181.12C1658.53 186.453 1666.85 193.173 1673.04 201.28V175.68H1709.84V352H1673.04V325.76C1666.85 334.08 1658.42 341.013 1647.76 346.56C1637.09 352.107 1624.93 354.88 1611.28 354.88C1596.13 354.88 1582.26 351.04 1569.68 343.36C1557.09 335.467 1547.06 324.587 1539.6 310.72C1532.34 296.64 1528.72 280.747 1528.72 263.04ZM1673.04 263.68C1673.04 251.52 1670.48 240.96 1665.36 232C1660.45 223.04 1653.94 216.213 1645.84 211.52C1637.73 206.827 1628.98 204.48 1619.6 204.48C1610.21 204.48 1601.46 206.827 1593.36 211.52C1585.25 216 1578.64 222.72 1573.52 231.68C1568.61 240.427 1566.16 250.88 1566.16 263.04C1566.16 275.2 1568.61 285.867 1573.52 295.04C1578.64 304.213 1585.25 311.253 1593.36 316.16C1601.68 320.853 1610.42 323.2 1619.6 323.2C1628.98 323.2 1637.73 320.853 1645.84 316.16C1653.94 311.467 1660.45 304.64 1665.36 295.68C1670.48 286.507 1673.04 275.84 1673.04 263.68ZM1745.59 263.68C1745.59 245.547 1749.22 229.653 1756.47 216C1763.94 202.133 1774.18 191.467 1787.19 184C1800.2 176.533 1815.14 172.8 1831.99 172.8C1853.32 172.8 1870.92 177.92 1884.79 188.16C1898.87 198.187 1908.36 212.587 1913.27 231.36H1873.91C1870.71 222.613 1865.59 215.787 1858.55 210.88C1851.51 205.973 1842.66 203.52 1831.99 203.52C1817.06 203.52 1805.11 208.853 1796.15 219.52C1787.4 229.973 1783.03 244.693 1783.03 263.68C1783.03 282.667 1787.4 297.493 1796.15 308.16C1805.11 318.827 1817.06 324.16 1831.99 324.16C1853.11 324.16 1867.08 314.88 1873.91 296.32H1913.27C1908.15 314.24 1898.55 328.533 1884.47 339.2C1870.39 349.653 1852.9 354.88 1831.99 354.88C1815.14 354.88 1800.2 351.147 1787.19 343.68C1774.18 336 1763.94 325.333 1756.47 311.68C1749.22 297.813 1745.59 281.813 1745.59 263.68ZM2019.39 264L2100.67 352H2051.39L1986.11 276.16V352H1949.63V115.2H1986.11V252.8L2050.11 175.68H2100.67L2019.39 264ZM2163.29 115.2V352H2126.81V115.2H2163.29ZM2287.67 354.88C2271.03 354.88 2255.99 351.147 2242.55 343.68C2229.11 336 2218.55 325.333 2210.87 311.68C2203.19 297.813 2199.35 281.813 2199.35 263.68C2199.35 245.76 2203.29 229.867 2211.19 216C2219.08 202.133 2229.85 191.467 2243.51 184C2257.16 176.533 2272.41 172.8 2289.27 172.8C2306.12 172.8 2321.37 176.533 2335.03 184C2348.68 191.467 2359.45 202.133 2367.35 216C2375.24 229.867 2379.19 245.76 2379.19 263.68C2379.19 281.6 2375.13 297.493 2367.03 311.36C2358.92 325.227 2347.83 336 2333.75 343.68C2319.88 351.147 2304.52 354.88 2287.67 354.88ZM2287.67 323.2C2297.05 323.2 2305.8 320.96 2313.91 316.48C2322.23 312 2328.95 305.28 2334.07 296.32C2339.19 287.36 2341.75 276.48 2341.75 263.68C2341.75 250.88 2339.29 240.107 2334.39 231.36C2329.48 222.4 2322.97 215.68 2314.87 211.2C2306.76 206.72 2298.01 204.48 2288.63 204.48C2279.24 204.48 2270.49 206.72 2262.39 211.2C2254.49 215.68 2248.2 222.4 2243.51 231.36C2238.81 240.107 2236.47 250.88 2236.47 263.68C2236.47 282.667 2241.27 297.387 2250.87 307.84C2260.68 318.08 2272.95 323.2 2287.67 323.2ZM2486.29 172.8C2499.94 172.8 2512 175.573 2522.45 181.12C2533.12 186.453 2541.44 193.173 2547.41 201.28V175.68H2584.21V354.88C2584.21 371.093 2580.8 385.493 2573.97 398.08C2567.14 410.88 2557.22 420.907 2544.21 428.16C2531.41 435.413 2516.05 439.04 2498.13 439.04C2474.24 439.04 2454.4 433.387 2438.61 422.08C2422.82 410.987 2413.86 395.84 2411.73 376.64H2447.89C2450.66 385.813 2456.53 393.173 2465.49 398.72C2474.66 404.48 2485.54 407.36 2498.13 407.36C2512.85 407.36 2524.69 402.88 2533.65 393.92C2542.82 384.96 2547.41 371.947 2547.41 354.88V325.44C2541.22 333.76 2532.8 340.8 2522.13 346.56C2511.68 352.107 2499.73 354.88 2486.29 354.88C2470.93 354.88 2456.85 351.04 2444.05 343.36C2431.46 335.467 2421.44 324.587 2413.97 310.72C2406.72 296.64 2403.09 280.747 2403.09 263.04C2403.09 245.333 2406.72 229.653 2413.97 216C2421.44 202.347 2431.46 191.787 2444.05 184.32C2456.85 176.64 2470.93 172.8 2486.29 172.8ZM2547.41 263.68C2547.41 251.52 2544.85 240.96 2539.73 232C2534.82 223.04 2528.32 216.213 2520.21 211.52C2512.1 206.827 2503.36 204.48 2493.97 204.48C2484.58 204.48 2475.84 206.827 2467.73 211.52C2459.62 216 2453.01 222.72 2447.89 231.68C2442.98 240.427 2440.53 250.88 2440.53 263.04C2440.53 275.2 2442.98 285.867 2447.89 295.04C2453.01 304.213 2459.62 311.253 2467.73 316.16C2476.05 320.853 2484.8 323.2 2493.97 323.2C2503.36 323.2 2512.1 320.853 2520.21 316.16C2528.32 311.467 2534.82 304.64 2539.73 295.68C2544.85 286.507 2547.41 275.84 2547.41 263.68Z" class="ink"/>
</svg>
